<?xml version="1.0" standalone="no"?>
<!DOCTYPE svg PUBLIC "-//W3C//DTD SVG 20010904//EN"
 "http://www.w3.org/TR/2001/REC-SVG-20010904/DTD/svg10.dtd">
<svg version="1.0" xmlns="http://www.w3.org/2000/svg"
 width="352.000000pt" height="500.000000pt" viewBox="0 0 352.000000 500.000000"
 preserveAspectRatio="xMidYMid meet">

<g transform="translate(0.000000,500.000000) scale(0.100000,-0.100000)"
fill="#000000" stroke="none">
<path d="M495 4857 c-231 -5 -421 -10 -423 -12 -2 -1 1 -144 6 -316 4 -173 11
-307 14 -299 4 8 9 28 12 43 4 15 11 25 16 22 6 -3 10 0 10 9 0 8 3 22 7 32 4
11 2 15 -4 11 -5 -4 -17 -1 -26 6 -14 11 -14 16 -1 52 8 22 12 56 9 75 -6 43
13 71 43 63 18 -4 19 -8 9 -24 -6 -10 -18 -19 -25 -19 -9 0 -12 -6 -8 -16 3
-9 6 -20 6 -25 0 -20 21 -7 36 24 22 42 24 44 34 27 7 -11 11 -8 20 14 6 16 8
37 5 48 -5 12 -2 18 7 16 7 -2 12 3 10 10 -1 6 1 12 5 13 5 0 16 2 26 4 12 2
17 -3 17 -17 0 -19 2 -20 18 -6 9 9 24 18 32 22 8 3 5 4 -7 2 -15 -3 -24 2
-28 15 -6 19 20 69 36 69 5 0 9 7 9 15 0 8 -5 15 -12 15 -9 0 -9 3 -1 11 13
13 36 3 28 -12 -4 -5 0 -9 8 -9 8 0 17 -7 21 -15 6 -17 56 -21 56 -5 0 24 31
21 51 -4 23 -29 39 -34 39 -11 0 7 6 18 14 22 8 4 15 17 18 28 2 11 10 20 18
20 8 0 15 -9 16 -20 1 -11 5 -28 9 -38 10 -24 35 -4 28 23 -3 11 2 26 10 34
13 14 16 14 29 -1 11 -15 11 -16 -4 -10 -10 3 -20 2 -23 -3 -4 -6 -2 -10 3
-10 5 0 12 -10 16 -22 5 -21 6 -21 18 -5 24 32 103 33 91 0 -5 -13 -1 -15 23
-9 16 4 24 3 18 -1 -13 -9 -29 -53 -19 -53 17 0 65 32 60 40 -4 6 3 10 14 10
11 0 23 -4 26 -10 8 -12 35 -13 35 -1 0 5 -9 11 -20 14 -21 5 -28 27 -9 27 6
0 8 9 3 23 l-6 22 19 -22 c20 -23 40 -32 28 -13 -7 12 22 70 35 70 6 0 10 -8
10 -17 0 -14 4 -13 24 6 18 17 25 19 29 9 4 -8 6 -7 6 5 1 10 6 15 11 12 6 -4
7 -11 4 -17 -5 -7 0 -9 14 -6 13 4 22 1 22 -5 0 -7 4 -6 9 2 7 12 10 11 14 -5
2 -10 3 -6 2 10 -2 27 -1 28 12 11 7 -11 13 -22 13 -27 0 -4 7 -8 15 -8 8 0
15 6 15 13 0 8 3 9 8 1 4 -6 15 -10 24 -8 14 2 17 -3 12 -22 -4 -14 -2 -24 4
-24 6 0 14 -10 18 -22 6 -19 7 -19 16 -5 5 10 6 22 3 27 -3 6 -1 10 4 10 6 0
11 7 11 15 0 8 5 15 10 15 6 0 10 9 10 20 0 11 3 20 6 20 10 0 64 -61 64 -73
0 -8 4 -7 12 1 9 9 14 7 23 -5 10 -14 12 -7 9 38 -2 30 -1 49 2 42 3 -7 13 -9
22 -6 15 6 15 4 -1 -14 -24 -28 -1 -37 27 -11 11 10 22 15 25 12 3 -3 -1 -9
-8 -13 -11 -7 -11 -10 0 -17 8 -4 14 -3 17 5 5 16 32 -5 32 -26 0 -8 5 -11 11
-7 7 4 9 0 5 -14 -4 -12 -2 -23 5 -28 8 -5 10 -2 6 8 -4 12 -1 14 14 11 10 -3
19 0 19 6 0 6 -8 11 -17 12 -11 0 -13 3 -5 6 19 8 14 21 -10 26 -20 4 -19 4 5
6 33 1 38 30 5 32 -17 1 -19 2 -5 6 24 6 21 23 -4 23 -17 0 -19 3 -10 14 13
15 -4 26 -39 26 -23 0 -46 -26 -29 -32 7 -2 9 -10 5 -16 -10 -16 -29 -15 -23
1 2 6 0 20 -5 30 -8 16 -30 17 -286 15 -152 -1 -466 -6 -697 -11z m-58 -79
c-3 -8 -6 -5 -6 6 -1 11 2 17 5 13 3 -3 4 -12 1 -19z m473 -2 c0 -3 -4 -8 -10
-11 -5 -3 -10 -1 -10 4 0 6 5 11 10 11 6 0 10 -2 10 -4z m-512 -37 c-3 -8 -7
-3 -11 10 -4 17 -3 21 5 13 5 -5 8 -16 6 -23z m-64 6 c-4 -8 -11 -15 -16 -15
-6 0 -8 -7 -4 -15 7 -18 -5 -20 -22 -3 -16 16 -15 39 2 32 8 -3 17 -1 21 5 10
17 25 13 19 -4z m-71 -51 c-3 -9 -9 -12 -12 -7 -3 4 -10 11 -15 16 -5 4 0 7
12 7 15 0 20 -4 15 -16z m-53 -54 c13 -8 13 -10 -2 -10 -9 0 -20 5 -23 10 -8
13 5 13 25 0z"/>
<path d="M1630 4849 c0 -11 5 -17 10 -14 6 3 10 -2 10 -12 0 -11 6 -27 13 -37
13 -18 14 -18 21 0 4 12 2 22 -8 29 -10 8 -12 16 -5 26 7 11 9 11 9 0 0 -11 3
-11 14 -2 12 10 20 10 38 0 13 -7 27 -12 31 -11 4 1 15 -5 24 -13 14 -14 17
-14 29 2 12 17 13 16 14 -9 0 -29 14 -37 27 -15 4 7 20 18 34 24 22 9 31 9 48
-4 20 -14 24 -13 36 3 14 18 14 18 15 -3 0 -13 5 -23 10 -23 6 0 10 7 10 15 0
9 7 18 15 21 26 10 17 34 -12 34 -16 0 -92 2 -170 5 -86 3 -144 1 -148 -5 -4
-6 -15 -6 -31 0 -34 13 -34 13 -34 -11z"/>
<path d="M3358 4863 c-52 -4 -58 -6 -58 -27 0 -12 6 -30 13 -40 13 -17 14 -16
26 12 11 27 15 29 27 17 18 -18 18 -23 -3 -27 -16 -3 -16 -4 0 -20 22 -22 22
-39 0 -32 -11 4 -14 3 -7 -3 6 -4 17 -25 25 -45 7 -21 16 -38 19 -38 3 0 5
-27 5 -61 0 -33 3 -63 7 -65 4 -3 8 48 8 113 0 65 3 142 6 171 4 29 3 51 -2
50 -5 -1 -35 -3 -66 -5z m43 -146 c-10 -9 -11 -8 -5 6 3 10 9 15 12 12 3 -3 0
-11 -7 -18z"/>
<path d="M2078 4853 c7 -3 16 -2 19 1 4 3 -2 6 -13 5 -11 0 -14 -3 -6 -6z"/>
<path d="M2828 4855 c-2 -3 -25 -5 -50 -6 -40 -2 -45 -5 -45 -25 0 -13 4 -21
9 -18 6 4 14 0 19 -7 7 -11 9 -10 9 5 0 11 3 17 6 14 3 -4 20 0 37 7 18 7 41
11 51 9 10 -1 25 4 33 12 13 12 9 14 -25 14 -21 0 -41 -2 -44 -5z"/>
<path d="M2230 4838 c0 -22 17 -42 24 -29 4 6 0 18 -8 27 -12 12 -16 12 -16 2z"/>
<path d="M2425 4840 c-3 -5 1 -10 9 -10 9 0 16 -5 16 -11 0 -17 23 -5 26 14 1
12 -5 17 -21 17 -13 0 -27 -4 -30 -10z"/>
<path d="M2673 4829 c9 -5 17 -19 17 -30 0 -27 16 -16 22 16 5 22 2 25 -26 25
-26 -1 -28 -2 -13 -11z"/>
<path d="M3185 4830 c-3 -5 -1 -10 4 -10 6 0 11 5 11 10 0 6 -2 10 -4 10 -3 0
-8 -4 -11 -10z"/>
<path d="M2041 4793 c0 -12 2 -14 6 -4 5 11 7 11 15 0 8 -12 9 -12 6 0 -6 22
-28 25 -27 4z"/>
<path d="M2450 4789 c0 -5 5 -7 10 -4 6 3 10 8 10 11 0 2 -4 4 -10 4 -5 0 -10
-5 -10 -11z"/>
<path d="M2720 4780 c0 -5 5 -10 10 -10 6 0 10 5 10 10 0 6 -4 10 -10 10 -5 0
-10 -4 -10 -10z"/>
<path d="M1694 4745 c-1 -14 2 -25 6 -25 11 0 21 30 14 41 -10 16 -19 9 -20
-16z"/>
<path d="M1180 4750 c0 -5 5 -10 10 -10 6 0 10 5 10 10 0 6 -4 10 -10 10 -5 0
-10 -4 -10 -10z"/>
<path d="M1210 4741 c0 -5 5 -13 10 -16 6 -3 10 -2 10 4 0 5 -4 13 -10 16 -5
3 -10 2 -10 -4z"/>
<path d="M1595 4690 c-3 -5 1 -10 10 -10 9 0 13 5 10 10 -3 6 -8 10 -10 10 -2
0 -7 -4 -10 -10z"/>
<path d="M882 4668 c-15 -15 -16 -48 -1 -48 5 0 7 5 4 10 -4 6 -1 18 6 26 15
18 7 28 -9 12z"/>
<path d="M1105 4670 c3 -5 8 -10 11 -10 2 0 4 5 4 10 0 6 -5 10 -11 10 -5 0
-7 -4 -4 -10z"/>
<path d="M900 4640 c0 -5 5 -10 10 -10 6 0 10 5 10 10 0 6 -4 10 -10 10 -5 0
-10 -4 -10 -10z"/>
<path d="M261 4538 c-1 -14 -7 -29 -13 -31 -9 -4 -8 -6 2 -6 9 -1 21 4 28 11
14 14 16 42 3 34 -5 -4 -12 0 -14 6 -3 7 -6 1 -6 -14z"/>
<path d="M3407 4513 c-11 -10 -8 -51 3 -58 6 -4 10 8 10 29 0 37 -2 41 -13 29z"/>
<path d="M230 4476 c0 -9 5 -16 10 -16 6 0 10 4 10 9 0 6 -4 13 -10 16 -5 3
-10 -1 -10 -9z"/>
<path d="M140 4415 c0 -9 6 -12 15 -9 8 4 15 7 15 9 0 2 -7 5 -15 9 -9 3 -15
0 -15 -9z"/>
<path d="M80 4174 c0 -8 5 -12 10 -9 6 4 8 11 5 16 -9 14 -15 11 -15 -7z"/>
<path d="M101 4152 c-1 -7 -5 -10 -11 -7 -6 4 -10 -12 -10 -42 0 -30 3 -43 9
-35 7 11 10 10 15 -3 8 -23 8 -25 -8 -25 -16 0 -23 -64 -25 -233 -1 -67 2
-117 7 -117 16 0 22 29 16 71 -6 35 -4 39 15 39 11 0 21 5 21 10 0 6 -4 10
-10 10 -5 0 -10 12 -9 28 0 15 3 21 6 15 9 -23 23 -14 14 9 -5 15 -4 26 4 33
17 14 27 62 15 70 -8 5 -7 11 1 21 9 11 8 14 -5 14 -9 0 -16 7 -16 15 0 9 6
12 15 9 11 -5 13 -2 9 10 -3 9 -13 16 -21 16 -9 0 -14 8 -12 23 1 12 -1 29 -4
37 -3 8 -8 22 -10 30 -4 10 -6 11 -6 2z m29 -153 c0 -5 -4 -9 -10 -9 -5 0 -10
7 -10 16 0 8 5 12 10 9 6 -3 10 -10 10 -16z m9 -47 c0 -11 -2 -12 -6 -4 -2 6
-9 10 -14 6 -10 -6 -12 9 -3 19 10 10 24 -2 23 -21z"/>
<path d="M125 4140 c3 -5 10 -10 16 -10 5 0 9 5 9 10 0 6 -7 10 -16 10 -8 0
-12 -4 -9 -10z"/>
<path d="M3420 3711 c0 -17 -5 -33 -10 -36 -6 -4 -7 -12 -1 -22 4 -9 6 -24 4
-34 -3 -11 0 -19 6 -19 7 0 11 25 11 70 0 39 -2 70 -5 70 -3 0 -5 -13 -5 -29z"/>
<path d="M105 3690 c-3 -11 -3 -29 0 -40 3 -11 2 -20 -4 -20 -5 0 -11 8 -14
18 -4 16 -4 16 -12 -2 -5 -11 -3 -21 5 -26 8 -5 9 -9 1 -14 -17 -11 -13 -26 7
-26 22 0 48 76 32 95 -8 9 -7 14 2 17 9 3 9 6 1 11 -7 4 -14 -1 -18 -13z"/>
<path d="M147 3641 c-5 -22 1 -33 14 -25 12 7 12 44 0 44 -5 0 -11 -9 -14 -19z"/>
<path d="M90 3561 c0 -5 6 -12 13 -15 6 -3 2 -3 -10 0 -19 4 -23 1 -22 -18 1
-13 5 -34 9 -48 8 -24 8 -24 9 -2 1 12 7 22 14 22 7 0 18 10 26 22 12 19 11
23 -5 35 -21 15 -34 17 -34 4z"/>
<path d="M126 3504 c-8 -21 -8 -24 3 -24 5 0 11 9 14 20 6 24 -8 27 -17 4z"/>
<path d="M3415 3440 c3 -5 8 -10 11 -10 2 0 4 5 4 10 0 6 -5 10 -11 10 -5 0
-7 -4 -4 -10z"/>
<path d="M70 3425 c0 -8 5 -15 12 -15 9 0 9 -3 0 -12 -13 -13 -15 -56 -6 -135
8 -61 23 -63 18 -3 -2 30 1 40 13 40 11 0 14 -6 9 -25 -4 -14 -2 -25 4 -25 17
0 11 48 -7 59 -16 9 -16 12 -3 21 13 8 13 10 -2 10 -10 0 -18 7 -18 15 0 17
16 20 25 5 7 -11 35 -2 35 12 0 5 -5 6 -12 2 -8 -5 -9 0 -6 14 4 12 2 23 -3
23 -5 1 -13 3 -19 4 -5 1 -15 3 -21 4 -5 0 -7 6 -4 11 3 6 1 10 -4 10 -6 0
-11 -7 -11 -15z"/>
<path d="M3407 3400 c-9 -11 -15 -20 -13 -20 1 0 0 -20 -4 -45 -4 -24 -3 -42
1 -39 4 2 10 0 13 -5 4 -5 2 -12 -4 -16 -6 -4 -8 -10 -5 -15 3 -5 1 -28 -4
-52 -11 -50 -5 -88 15 -88 7 0 15 -14 17 -32 2 -18 5 49 5 150 1 100 1 182 -1
182 -1 0 -10 -9 -20 -20z"/>
<path d="M111 3203 c-1 -12 4 -25 9 -28 12 -7 12 2 0 30 -8 19 -9 19 -9 -2z"/>
<path d="M83 3135 c15 -32 27 -32 27 0 0 18 -5 25 -19 25 -17 0 -18 -3 -8 -25z"/>
<path d="M102 3083 c2 -10 9 -17 15 -16 8 2 7 -7 -2 -24 -16 -30 -11 -45 10
-36 19 7 19 60 1 79 -19 19 -28 18 -24 -3z"/>
<path d="M70 2913 c0 -43 5 -85 10 -93 7 -11 9 -1 8 35 -1 28 1 60 5 72 7 25
-2 63 -14 63 -5 0 -9 -35 -9 -77z"/>
<path d="M93 2706 c-6 -8 -9 -17 -6 -20 11 -11 21 -6 26 14 6 23 -3 25 -20 6z"/>
<path d="M78 2510 c-3 -19 -3 -74 0 -122 4 -72 8 -89 22 -93 10 -3 21 -12 23
-20 4 -8 14 -11 26 -8 14 4 20 -1 24 -19 4 -23 4 -23 6 -1 0 13 -13 52 -29 87
-17 35 -28 70 -25 78 4 9 0 22 -9 30 -8 8 -18 35 -23 59 l-9 44 -6 -35z"/>
<path d="M116 2238 c3 -4 9 -8 15 -8 5 0 9 4 9 8 0 5 -7 9 -15 9 -8 0 -12 -4
-9 -9z"/>
<path d="M81 2189 c-1 -31 3 -37 24 -41 27 -6 43 6 25 17 -6 4 -8 11 -5 16 3
5 -1 6 -9 3 -11 -4 -19 2 -25 17 -9 22 -10 21 -10 -12z"/>
<path d="M87 2133 c-4 -3 -7 -11 -7 -17 0 -6 5 -5 12 2 6 6 9 14 7 17 -3 3 -9
2 -12 -2z"/>
<path d="M72 1861 c-1 -196 0 -210 20 -234 24 -30 41 -21 51 31 5 25 3 32 -9
32 -13 0 -14 3 -4 15 10 11 9 18 -3 30 -12 11 -17 12 -20 2 -4 -8 -6 -8 -6 2
-1 8 9 25 21 38 17 19 18 23 6 23 -9 0 -19 -6 -21 -12 -4 -8 -6 -7 -6 4 -1 9
-4 23 -7 32 -4 10 -1 16 9 16 8 0 21 8 28 18 13 15 12 16 -2 4 -14 -10 -18
-10 -22 2 -4 9 -2 18 3 21 6 4 10 12 10 18 0 7 -4 6 -10 -3 -7 -10 -10 -11
-10 -2 0 7 7 15 17 19 14 5 13 8 -5 14 -19 7 -20 11 -11 33 14 29 4 92 -15 99
-11 5 -14 -31 -14 -202z"/>
<path d="M3350 2011 c0 -5 5 -13 10 -16 6 -3 10 -2 10 4 0 5 -4 13 -10 16 -5
3 -10 2 -10 -4z"/>
<path d="M121 1984 c0 -11 3 -14 6 -6 3 7 2 16 -1 19 -3 4 -6 -2 -5 -13z"/>
<path d="M171 1721 c-7 -5 -12 -14 -10 -20 3 -6 9 -7 18 -2 7 5 12 14 10 20
-3 6 -9 7 -18 2z"/>
<path d="M266 1704 c-5 -14 -4 -15 9 -4 17 14 19 20 6 20 -5 0 -12 -7 -15 -16z"/>
<path d="M70 1280 c0 -5 5 -10 11 -10 5 0 7 5 4 10 -3 6 -8 10 -11 10 -2 0 -4
-4 -4 -10z"/>
<path d="M88 1253 c-15 -4 -18 -17 -18 -81 0 -68 1 -74 14 -56 9 12 11 23 5
30 -14 17 -8 76 9 97 8 9 13 16 11 16 -2 -1 -12 -3 -21 -6z"/>
<path d="M110 890 c0 -5 5 -10 10 -10 6 0 10 5 10 10 0 6 -4 10 -10 10 -5 0
-10 -4 -10 -10z"/>
<path d="M81 794 c0 -11 3 -14 6 -6 3 7 2 16 -1 19 -3 4 -6 -2 -5 -13z"/>
<path d="M81 584 c1 -65 6 -122 11 -125 5 -3 5 -17 -1 -31 -14 -38 -1 -43 21
-8 16 27 16 33 4 53 -8 13 -15 52 -16 97 -1 92 -4 118 -13 127 -4 4 -7 -47 -6
-113z"/>
<path d="M3421 674 c0 -11 3 -14 6 -6 3 7 2 16 -1 19 -3 4 -6 -2 -5 -13z"/>
<path d="M3406 594 c-20 -19 -20 -29 -2 -47 8 -7 16 -25 19 -38 3 -13 5 4 4
39 0 34 -1 62 -3 62 -1 0 -10 -7 -18 -16z"/>
<path d="M3413 433 c-2 -34 -7 -63 -10 -63 -2 0 -8 10 -12 23 -8 19 -10 17
-16 -21 -4 -23 -12 -45 -16 -48 -5 -3 -9 -12 -9 -20 0 -14 2 -13 16 0 23 23
30 20 9 -4 -11 -13 -25 -18 -37 -14 -10 3 -18 1 -18 -5 0 -6 5 -11 10 -11 6 0
10 -8 10 -17 1 -16 2 -16 13 -2 7 8 20 18 30 22 15 6 16 4 7 -13 -6 -12 -7
-21 0 -25 14 -8 1 -32 -20 -38 -11 -3 -21 1 -24 10 -4 11 -2 13 9 9 8 -3 15
-1 15 4 0 6 -9 10 -20 10 -11 0 -20 -7 -20 -15 0 -8 -4 -15 -8 -15 -4 0 -6
-16 -4 -35 4 -29 1 -34 -12 -29 -11 4 -16 1 -16 -10 0 -9 6 -16 13 -17 6 0 20
-2 31 -4 10 -2 29 0 42 5 15 6 24 6 24 0 0 -6 7 -10 15 -10 12 0 15 16 15 85
0 50 -4 85 -10 85 -5 0 -10 9 -10 20 0 11 5 20 10 20 6 0 10 30 10 70 0 39 -4
70 -8 70 -4 0 -8 -8 -9 -17z m4 -95 c-3 -8 -6 -5 -6 6 -1 11 2 17 5 13 3 -3 4
-12 1 -19z m-27 -203 c-7 -9 -15 -13 -17 -11 -6 6 20 36 26 30 2 -2 -2 -10 -9
-19z"/>
<path d="M140 399 c0 -5 5 -7 10 -4 6 3 10 8 10 11 0 2 -4 4 -10 4 -5 0 -10
-5 -10 -11z"/>
<path d="M78 263 c-2 -65 -2 -121 0 -125 2 -5 96 -8 210 -8 175 0 203 2 182
13 -14 7 -26 9 -28 5 -7 -15 -21 -8 -16 7 4 8 1 15 -5 15 -6 0 -10 -5 -8 -11
1 -6 -4 -14 -10 -16 -7 -3 -13 0 -13 6 0 6 -6 11 -14 11 -7 0 -21 10 -29 23
-13 18 -16 19 -16 5 -1 -22 -5 -22 -37 -2 -20 13 -24 14 -22 3 2 -9 -5 -13
-20 -12 -13 2 -25 -4 -28 -12 -4 -8 -10 -15 -15 -15 -4 0 -6 7 -3 15 4 10 0
15 -12 15 -15 0 -16 2 -5 9 13 8 13 12 0 27 -13 16 -12 16 8 5 14 -7 20 -17
17 -26 -4 -8 -1 -15 5 -15 6 0 11 5 11 10 0 6 8 10 18 11 14 0 13 2 -4 9 -12
4 -24 15 -27 23 -4 10 -13 13 -26 10 -13 -3 -21 -1 -21 7 0 10 -3 10 -15 0
-10 -9 -15 -9 -15 -1 0 6 -5 11 -11 11 -7 0 -9 -9 -6 -21 3 -13 1 -19 -6 -16
-13 4 -17 97 -4 97 4 0 7 -5 7 -11 0 -5 5 -7 11 -3 8 5 8 9 -1 14 -6 4 -10 16
-8 26 2 11 -2 18 -9 17 -7 -2 -13 2 -13 7 0 6 -4 10 -9 10 -6 0 -11 -53 -13
-117z"/>
<path d="M765 300 c-3 -5 -8 -23 -10 -40 -3 -23 0 -30 13 -30 11 0 13 -3 5 -8
-12 -7 -13 -93 -1 -86 3 2 8 -2 11 -8 3 -10 11 -10 36 -1 17 6 29 7 26 2 -3
-5 26 -8 65 -7 70 1 80 9 28 22 -15 3 -30 2 -33 -4 -3 -5 -14 -10 -23 -9 -11
0 -12 3 -4 6 6 2 12 12 11 21 0 11 -2 12 -6 5 -7 -19 -27 -16 -41 7 -7 11 -18
17 -27 14 -11 -5 -15 1 -15 18 0 13 -7 34 -16 46 -9 13 -13 31 -9 42 7 21 1
27 -10 10z"/>
<path d="M3286 255 c-3 -8 -1 -15 4 -15 6 0 10 7 10 15 0 8 -2 15 -4 15 -2 0
-6 -7 -10 -15z"/>
<path d="M1854 195 c-7 -6 -15 -21 -18 -33 -6 -18 -2 -24 19 -32 59 -22 69 -9
32 44 -17 26 -25 31 -33 21z"/>
<path d="M2400 200 c0 -5 5 -10 10 -10 6 0 10 5 10 10 0 6 -4 10 -10 10 -5 0
-10 -4 -10 -10z"/>
<path d="M578 162 c-10 -2 -18 -10 -18 -18 0 -15 6 -16 32 -6 22 9 9 29 -14
24z"/>
<path d="M2055 160 c3 -6 -3 -10 -15 -10 -13 0 -20 -5 -18 -12 6 -17 88 -23
88 -8 0 7 -7 10 -15 6 -9 -3 -15 0 -15 8 0 8 -7 17 -16 20 -8 3 -12 2 -9 -4z"/>
<path d="M2382 149 c-7 -11 -19 -18 -27 -15 -8 3 -15 0 -17 -6 -2 -6 -19 -1
-39 11 -31 18 -38 19 -48 7 -18 -22 22 -39 76 -33 24 2 46 1 49 -4 9 -16 32
-9 37 11 3 10 0 26 -7 35 -10 14 -13 13 -24 -6z"/>
<path d="M2725 150 c4 -21 -9 -27 -20 -10 -8 13 -52 13 -61 -1 -11 -18 9 -27
74 -31 70 -5 79 6 33 40 -29 21 -30 21 -26 2z"/>
<path d="M516 146 c3 -9 13 -16 22 -16 8 0 13 1 11 3 -2 1 -12 9 -22 16 -15
12 -17 12 -11 -3z"/>
<path d="M1010 145 c-6 -8 -8 -20 -4 -26 5 -9 11 -7 21 6 23 33 9 51 -17 20z"/>
<path d="M1058 143 c7 -3 16 -2 19 1 4 3 -2 6 -13 5 -11 0 -14 -3 -6 -6z"/>
<path d="M1106 135 c-6 -16 -4 -16 57 -20 26 -1 37 2 37 12 0 10 -10 12 -42 7
-30 -5 -39 -4 -34 4 4 7 3 12 -2 12 -6 0 -12 -7 -16 -15z"/>
<path d="M1240 141 c0 -5 7 -14 15 -21 12 -10 15 -10 15 3 0 8 -7 17 -15 21
-8 3 -15 2 -15 -3z"/>
<path d="M2820 121 c0 -11 26 -22 34 -14 12 12 5 23 -14 23 -11 0 -20 -4 -20
-9z"/>
<path d="M3255 120 c3 -5 8 -10 11 -10 2 0 4 5 4 10 0 6 -5 10 -11 10 -5 0 -7
-4 -4 -10z"/>
<path d="M2950 116 c0 -2 9 -6 20 -9 11 -3 20 -1 20 4 0 5 -9 9 -20 9 -11 0
-20 -2 -20 -4z"/>
</g>
</svg>
